<?xml version="1.0" standalone="no"?>
<!DOCTYPE svg PUBLIC "-//W3C//DTD SVG 20010904//EN"
 "http://www.w3.org/TR/2001/REC-SVG-20010904/DTD/svg10.dtd">
<svg version="1.0" xmlns="http://www.w3.org/2000/svg"
 width="1755.000000pt" height="1755.000000pt" viewBox="0 0 1755.000000 1755.000000"
 preserveAspectRatio="xMidYMid meet">
<metadata>
Created by potrace 1.11, written by Peter Selinger 2001-2013
</metadata>
<g transform="translate(0.000000,1755.000000) scale(0.100000,-0.100000)"
fill="#000000" stroke="none">
<path d="M10329 9820 c-1 -3 -2 -40 -3 -82 l-3 -78 31 0 c51 -1 758 -1 801 -1
l40 1 0 82 0 83 -432 0 c-238 0 -433 -2 -434 -5z"/>
<path d="M15649 9825 c-1 0 -2 -37 -3 -82 l-2 -83 46 -1 c46 -1 754 0 802 1
l28 0 -1 80 c0 44 -4 81 -7 81 -5 1 -855 5 -863 4z"/>
<path d="M10326 9288 c1 -40 2 -78 3 -83 1 -7 148 -10 434 -10 l432 0 0 83 0
82 -435 0 -436 0 2 -72z"/>
<path d="M11389 9335 c0 -14 -1 -43 -1 -65 0 -22 1 -48 1 -58 1 -16 28 -17
436 -17 l435 0 0 82 0 83 -435 0 -435 0 -1 -25z"/>
<path d="M13519 9348 c-4 -55 -3 -126 2 -138 6 -13 63 -15 436 -15 l428 0 3
83 3 82 -436 0 c-341 0 -435 -3 -436 -12z"/>
<path d="M15646 9288 c1 -40 2 -78 3 -83 1 -7 151 -10 434 -10 l432 0 2 83 3
82 -438 0 -438 0 2 -72z"/>
<path d="M10328 8893 c-3 -5 -4 -42 -4 -83 l1 -75 435 0 435 0 0 80 0 80 -432
3 c-237 1 -433 -1 -435 -5z"/>
<path d="M11389 8865 c0 -19 -1 -53 -1 -75 0 -22 1 -44 1 -49 1 -6 169 -10
436 -9 l435 0 0 84 0 84 -435 0 -435 0 -1 -35z"/>
<path d="M12454 8887 c-3 -8 -4 -45 -2 -83 l3 -69 435 0 435 0 0 80 0 80 -433
3 c-357 2 -433 0 -438 -11z"/>
<path d="M13518 8893 c-3 -7 -2 -65 1 -140 l1 -22 433 2 432 2 3 83 3 82 -435
0 c-239 0 -436 -3 -438 -7z"/>
<path d="M14580 8816 l0 -84 435 0 c419 0 435 1 436 19 0 10 0 39 0 64 0 96
57 85 -436 85 l-435 0 0 -84z"/>
<path d="M15648 8888 c-3 -7 -4 -44 -4 -83 l1 -70 436 -2 435 -1 2 66 c3 113
51 102 -438 102 -333 0 -429 -3 -432 -12z"/>
<path d="M2659 8528 c0 -7 -1 -71 0 -143 l0 -130 -20 31 c-24 39 -69 59 -130
58 -120 -2 -188 -108 -181 -279 7 -135 81 -225 187 -225 48 0 83 16 117 52 29
32 30 32 28 8 -4 -48 -2 -50 50 -50 l50 0 0 345 0 345 -50 0 c-33 0 -50 -4
-51 -12z m-74 -276 c11 -4 32 -15 45 -25 24 -17 25 -23 27 -126 1 -124 -6
-143 -63 -161 -69 -23 -134 9 -153 76 -12 41 -6 147 10 180 14 29 71 65 99 63
8 -1 24 -4 35 -7z"/>
<path d="M2906 8518 c-19 -27 -20 -39 -4 -73 16 -35 80 -36 103 -2 16 25 11
77 -8 89 -25 16 -76 8 -91 -14z"/>
<path d="M5587 8533 c-2 -5 -3 -145 -2 -313 1 -274 3 -308 19 -332 18 -27 59
-39 121 -35 28 2 30 5 30 42 0 38 -1 40 -33 45 l-34 5 1 298 0 297 -49 0 c-27
0 -51 -3 -53 -7z"/>
<path d="M8580 8521 c-15 -29 -12 -67 6 -85 19 -20 78 -21 93 -2 16 20 17 72
1 91 -19 23 -87 20 -100 -4z"/>
<path d="M1095 8178 l0 -323 51 -2 52 -2 0 236 c1 129 3 237 6 240 2 3 14 -16
26 -41 17 -38 156 -296 164 -303 1 -1 13 19 26 45 14 26 40 73 58 105 19 32
51 93 72 135 l39 77 0 -247 1 -248 50 1 c28 1 50 4 51 8 0 3 1 149 2 324 l2
317 -62 0 -61 0 -58 -107 c-31 -60 -71 -134 -87 -165 l-31 -58 -38 73 c-20 39
-59 114 -85 165 l-48 92 -65 0 -65 0 0 -322z"/>
<path d="M5042 8175 l0 -324 209 1 209 0 0 49 0 48 -117 0 c-65 0 -135 0 -155
0 l-38 1 0 90 c0 86 1 90 23 91 12 0 75 0 140 0 l117 -1 0 49 0 49 -77 0 c-43
0 -106 1 -140 1 l-63 1 0 85 c0 61 4 85 13 86 6 1 75 2 152 3 l140 1 3 48 3
47 -210 0 -209 0 0 -325z"/>
<path d="M6870 8408 c0 -52 -3 -59 -23 -67 -13 -5 -32 -9 -42 -8 -16 2 -19 -5
-20 -38 0 -39 1 -40 38 -43 l37 -3 0 -159 c0 -87 4 -170 10 -184 14 -38 61
-57 128 -54 l57 3 2 43 3 42 -44 0 c-33 0 -45 4 -48 18 -2 9 -4 78 -3 152 l1
135 49 5 50 5 0 40 -1 40 -46 -1 c-53 -1 -55 2 -53 83 l1 53 -48 -2 -48 -1 0
-59z"/>
<path d="M10332 8430 c-10 -7 -9 -146 1 -156 11 -12 856 -11 860 1 2 6 3 44 3
85 l-1 75 -428 0 c-235 0 -431 -2 -435 -5z"/>
<path d="M11389 8413 c0 -13 -1 -41 -1 -63 0 -22 1 -50 1 -62 l1 -23 420 2
c231 0 427 2 435 2 12 1 15 17 15 84 l0 82 -435 0 -435 0 -1 -22z"/>
<path d="M12454 8431 c-2 -2 -4 -41 -4 -85 l0 -81 428 1 c235 0 432 3 438 6 5
4 10 42 9 85 l0 78 -433 0 c-238 0 -435 -2 -438 -4z"/>
<path d="M13522 8420 c-9 -18 -8 -132 0 -145 4 -6 169 -10 435 -10 l428 1 3
82 c2 45 -1 83 -5 83 -4 1 -198 2 -431 3 -372 2 -424 0 -430 -14z"/>
<path d="M14583 8424 c-2 -6 -3 -44 -1 -84 l3 -74 423 0 c233 -1 428 2 434 5
9 6 11 37 9 134 l-1 30 -431 0 c-308 0 -433 -3 -436 -11z"/>
<path d="M15647 8425 c-2 -5 -3 -43 -2 -84 l1 -75 428 0 c235 -1 432 1 437 4
4 3 7 42 6 85 l-2 80 -432 0 c-287 0 -434 -3 -436 -10z"/>
<path d="M1958 8335 c-105 -36 -155 -127 -146 -268 8 -115 56 -185 147 -216
80 -26 186 -3 240 53 l32 33 -29 31 -29 31 -24 -23 c-39 -36 -64 -46 -114 -46
-40 0 -52 5 -81 34 -19 19 -34 42 -35 53 0 10 -2 25 -4 34 -2 15 15 16 157 15
96 -1 163 3 168 9 25 31 -17 178 -63 217 -56 50 -148 68 -219 43z m141 -96
c19 -18 44 -85 36 -98 -4 -7 -212 -7 -219 0 -10 9 25 85 46 101 41 30 102 29
137 -3z"/>
<path d="M3248 8340 c-39 -11 -91 -45 -105 -68 -10 -17 -7 -24 17 -47 l29 -28
36 32 c28 25 45 31 80 31 60 0 94 -30 99 -87 l4 -43 -77 0 c-92 -1 -167 -25
-194 -62 -29 -39 -29 -127 -1 -165 27 -37 80 -63 129 -63 51 0 121 32 130 59
7 24 25 28 25 7 0 -27 50 -56 96 -56 l44 0 0 45 c0 41 -2 45 -25 45 l-25 0 0
135 c0 74 0 137 0 140 0 3 -7 20 -16 38 -18 36 -47 63 -83 78 -32 13 -130 18
-163 9z m156 -312 c-1 -16 -2 -37 -3 -48 -2 -28 -45 -53 -96 -56 -59 -3 -85
17 -85 66 0 56 26 71 115 68 69 -3 70 -3 69 -30z"/>
<path d="M5965 8335 c-60 -21 -87 -46 -118 -106 -39 -77 -41 -183 -4 -270 18
-43 74 -93 122 -109 74 -24 185 0 243 53 29 27 28 38 -5 71 -26 27 -28 27 -43
9 -29 -35 -64 -53 -107 -53 -74 0 -119 36 -127 103 l-4 34 151 1 c84 0 159 1
167 1 18 1 18 61 -1 128 -31 113 -158 177 -274 138z m125 -85 c26 -14 41 -37
50 -74 5 -23 4 -36 -4 -39 -18 -6 -206 -1 -212 6 -7 7 13 64 30 86 27 34 92
45 136 21z"/>
<path d="M6494 8340 c-132 -30 -200 -196 -146 -358 54 -161 282 -194 374 -54
10 15 18 30 18 33 0 3 -17 15 -38 27 l-39 22 -12 -24 c-26 -48 -100 -70 -155
-45 -43 20 -58 69 -54 171 3 88 4 90 37 120 30 27 39 30 80 25 36 -4 52 -12
73 -37 l27 -33 35 17 c19 9 37 20 40 25 8 12 -52 79 -86 97 -34 17 -108 24
-154 14z"/>
<path d="M7637 8335 c-95 -33 -147 -120 -147 -245 0 -162 106 -265 252 -246
82 11 126 42 163 114 23 47 26 67 25 146 -1 106 -42 181 -118 220 -44 23 -128
28 -175 11z m134 -92 c36 -22 51 -58 54 -135 2 -75 -11 -131 -35 -153 -48 -44
-154 -24 -180 33 -19 43 -14 192 9 222 36 50 99 64 152 33z"/>
<path d="M8233 8339 c-17 -5 -42 -22 -56 -39 -27 -32 -38 -30 -31 5 5 30 -15
36 -98 26 -4 -1 -6 -108 -5 -238 l2 -238 47 -1 c36 -2 48 2 51 15 3 9 3 81 2
161 -2 173 7 204 64 220 40 11 76 7 97 -10 24 -21 33 -74 32 -210 0 -74 1
-145 1 -157 1 -21 6 -23 51 -23 41 0 50 3 51 18 3 62 0 332 -4 354 -6 29 -24
67 -41 84 -34 34 -106 48 -163 33z"/>
<path d="M8948 8340 c-95 -28 -149 -109 -153 -229 -4 -99 15 -161 64 -210 88
-88 261 -76 322 23 10 17 19 34 19 38 0 4 -18 17 -40 28 -22 11 -40 16 -40 10
0 -5 -14 -23 -31 -40 -44 -42 -105 -42 -150 -2 -30 27 -32 34 -37 109 -7 131
20 181 102 190 42 5 48 3 82 -31 l36 -36 36 17 c21 9 38 18 40 19 10 7 -49 76
-80 94 -41 23 -126 33 -170 20z"/>
<path d="M9379 8338 c-54 -14 -97 -64 -105 -121 -13 -92 40 -149 152 -162 86
-11 114 -28 114 -71 0 -29 -31 -54 -73 -58 -38 -4 -104 21 -126 47 -18 23 -23
22 -59 -12 l-31 -30 25 -24 c82 -83 239 -88 322 -12 35 32 37 36 37 98 0 51
-4 70 -20 87 -27 30 -76 50 -148 60 -89 13 -122 55 -77 100 34 34 107 26 163
-19 16 -13 21 -12 49 17 l32 31 -25 22 c-57 50 -146 68 -230 47z"/>
<path d="M2905 8331 c-2 -4 -3 -112 -2 -241 l2 -235 46 -3 c38 -2 47 0 51 15
2 10 4 119 3 242 l0 225 -48 1 c-26 1 -49 -1 -52 -4z"/>
<path d="M3632 8330 c-4 -3 -8 -22 -8 -42 l0 -38 123 0 124 0 -38 -47 c-21
-26 -45 -57 -55 -68 -163 -200 -162 -199 -159 -262 1 -22 2 -22 191 -22 202 1
192 -2 192 49 0 11 0 24 -1 30 -1 5 -56 11 -129 12 l-128 3 127 155 c118 144
127 157 125 195 l-1 40 -178 0 c-98 0 -181 -2 -185 -5z"/>
<path d="M7181 8331 c-8 -5 -11 -74 -9 -242 l3 -234 50 0 50 0 0 155 c1 85 4
164 8 176 10 30 49 47 107 48 l51 1 -3 50 c-3 48 -4 50 -32 50 -29 1 -106 -31
-106 -44 0 -4 -6 -15 -13 -25 -11 -16 -13 -14 -12 16 1 18 0 38 -2 44 -4 12
-74 15 -92 5z"/>
<path d="M8580 8094 l0 -243 50 1 c39 0 50 3 51 16 1 22 1 432 0 453 -1 12
-12 16 -51 15 l-50 0 0 -242z"/>
<path d="M4048 8139 c-2 -22 -2 -42 1 -45 2 -2 213 -4 468 -4 l463 0 0 45 0
45 -464 0 -464 0 -4 -41z"/>
<path d="M10337 7970 c-10 -4 -16 -111 -8 -158 0 -4 196 -7 433 -7 l433 0 0
78 c0 43 -4 81 -9 84 -11 7 -832 10 -849 3z"/>
<path d="M11399 7969 c-8 -4 -13 -91 -10 -149 1 -13 55 -15 436 -15 l435 0 0
82 0 83 -27 1 c-129 4 -827 3 -834 -2z"/>
<path d="M12453 7964 c-2 -6 -3 -44 -1 -85 l3 -74 433 0 c237 0 432 2 433 5 1
3 2 40 4 83 1 50 -2 77 -9 78 -6 0 -202 1 -435 2 -299 1 -425 -1 -428 -9z"/>
<path d="M13523 7964 c-7 -18 -10 -143 -3 -152 3 -4 199 -8 435 -7 l430 0 3
83 c2 73 1 82 -15 83 -10 0 -204 1 -432 2 -303 2 -415 -1 -418 -9z"/>
<path d="M14596 7972 c-14 -3 -16 -15 -14 -85 l3 -82 434 0 435 0 -2 79 c-1
44 -4 81 -7 84 -5 6 -821 9 -849 4z"/>
<path d="M15657 7970 c-10 -4 -15 -100 -8 -155 1 -7 144 -11 434 -10 l432 0 2
83 c1 58 -2 82 -10 83 -53 4 -840 3 -850 -1z"/>
</g>
</svg>
